<svg width="112" height="112" viewBox="0 0 112 112" fill="none" xmlns="http://www.w3.org/2000/svg">
<path d="M80.5 49C80.5 49.9283 80.1313 50.8185 79.4749 51.4749C78.8185 52.1313 77.9283 52.5 77 52.5H49C48.0717 52.5 47.1815 52.1313 46.5251 51.4749C45.8687 50.8185 45.5 49.9283 45.5 49C45.5 48.0717 45.8687 47.1815 46.5251 46.5251C47.1815 45.8687 48.0717 45.5 49 45.5H77C77.9283 45.5 78.8185 45.8687 79.4749 46.5251C80.1313 47.1815 80.5 48.0717 80.5 49ZM77 59.5H49C48.0717 59.5 47.1815 59.8687 46.5251 60.5251C45.8687 61.1815 45.5 62.0717 45.5 63C45.5 63.9283 45.8687 64.8185 46.5251 65.4749C47.1815 66.1313 48.0717 66.5 49 66.5H77C77.9283 66.5 78.8185 66.1313 79.4749 65.4749C80.1313 64.8185 80.5 63.9283 80.5 63C80.5 62.0717 80.1313 61.1815 79.4749 60.5251C78.8185 59.8687 77.9283 59.5 77 59.5ZM98 21V91C98 92.8565 97.2625 94.637 95.9497 95.9497C94.637 97.2625 92.8565 98 91 98H21C19.1435 98 17.363 97.2625 16.0503 95.9497C14.7375 94.637 14 92.8565 14 91V21C14 19.1435 14.7375 17.363 16.0503 16.0503C17.363 14.7375 19.1435 14 21 14H91C92.8565 14 94.637 14.7375 95.9497 16.0503C97.2625 17.363 98 19.1435 98 21ZM21 91H31.5V21H21V91ZM91 91V21H38.5V91H91Z" fill="#2A2A2A"/>
</svg>
