<svg width="112" height="112" viewBox="0 0 112 112" fill="none" xmlns="http://www.w3.org/2000/svg">
<path d="M56 10.5C32.4494 10.5 14 21.2625 14 35V77C14 90.7375 32.4494 101.5 56 101.5C79.5506 101.5 98 90.7375 98 77V35C98 21.2625 79.5506 10.5 56 10.5ZM91 56C91 60.2087 87.5525 64.5006 81.5456 67.7775C74.7819 71.4656 65.7081 73.5 56 73.5C46.2919 73.5 37.2181 71.4656 30.4544 67.7775C24.4475 64.5006 21 60.2087 21 56V48.72C28.4637 55.2825 41.2256 59.5 56 59.5C70.7744 59.5 83.5363 55.265 91 48.72V56ZM30.4544 23.2225C37.2181 19.5344 46.2919 17.5 56 17.5C65.7081 17.5 74.7819 19.5344 81.5456 23.2225C87.5525 26.4994 91 30.7913 91 35C91 39.2087 87.5525 43.5006 81.5456 46.7775C74.7819 50.4656 65.7081 52.5 56 52.5C46.2919 52.5 37.2181 50.4656 30.4544 46.7775C24.4475 43.5006 21 39.2087 21 35C21 30.7913 24.4475 26.4994 30.4544 23.2225ZM81.5456 88.7775C74.7819 92.4656 65.7081 94.5 56 94.5C46.2919 94.5 37.2181 92.4656 30.4544 88.7775C24.4475 85.5006 21 81.2087 21 77V69.72C28.4637 76.2825 41.2256 80.5 56 80.5C70.7744 80.5 83.5363 76.265 91 69.72V77C91 81.2087 87.5525 85.5006 81.5456 88.7775Z" fill="#2A2A2A"/>
</svg>
