<svg width="12" height="14" viewBox="0 0 12 14" fill="none" xmlns="http://www.w3.org/2000/svg">
<path d="M11 1.61462H9.5V1.11462C9.5 0.982016 9.44732 0.854839 9.35355 0.761071C9.25979 0.667302 9.13261 0.614624 9 0.614624C8.86739 0.614624 8.74021 0.667302 8.64645 0.761071C8.55268 0.854839 8.5 0.982016 8.5 1.11462V1.61462H3.5V1.11462C3.5 0.982016 3.44732 0.854839 3.35355 0.761071C3.25979 0.667302 3.13261 0.614624 3 0.614624C2.86739 0.614624 2.74021 0.667302 2.64645 0.761071C2.55268 0.854839 2.5 0.982016 2.5 1.11462V1.61462H1C0.734784 1.61462 0.48043 1.71998 0.292893 1.90752C0.105357 2.09505 0 2.34941 0 2.61462V12.6146C0 12.8798 0.105357 13.1342 0.292893 13.3217C0.48043 13.5093 0.734784 13.6146 1 13.6146H11C11.2652 13.6146 11.5196 13.5093 11.7071 13.3217C11.8946 13.1342 12 12.8798 12 12.6146V2.61462C12 2.34941 11.8946 2.09505 11.7071 1.90752C11.5196 1.71998 11.2652 1.61462 11 1.61462ZM2.5 2.61462V3.11462C2.5 3.24723 2.55268 3.37441 2.64645 3.46818C2.74021 3.56195 2.86739 3.61462 3 3.61462C3.13261 3.61462 3.25979 3.56195 3.35355 3.46818C3.44732 3.37441 3.5 3.24723 3.5 3.11462V2.61462H8.5V3.11462C8.5 3.24723 8.55268 3.37441 8.64645 3.46818C8.74021 3.56195 8.86739 3.61462 9 3.61462C9.13261 3.61462 9.25979 3.56195 9.35355 3.46818C9.44732 3.37441 9.5 3.24723 9.5 3.11462V2.61462H11V4.61462H1V2.61462H2.5ZM11 12.6146H1V5.61462H11V12.6146ZM6.75 7.86462C6.75 8.01296 6.70601 8.15796 6.6236 8.2813C6.54119 8.40464 6.42406 8.50077 6.28701 8.55753C6.14997 8.6143 5.99917 8.62915 5.85368 8.60021C5.7082 8.57127 5.57456 8.49984 5.46967 8.39495C5.36478 8.29006 5.29335 8.15643 5.26441 8.01094C5.23547 7.86546 5.25032 7.71466 5.30709 7.57761C5.36386 7.44057 5.45999 7.32343 5.58332 7.24102C5.70666 7.15861 5.85166 7.11462 6 7.11462C6.19891 7.11462 6.38968 7.19364 6.53033 7.33429C6.67098 7.47495 6.75 7.66571 6.75 7.86462ZM9.5 7.86462C9.5 8.01296 9.45601 8.15796 9.3736 8.2813C9.29119 8.40464 9.17406 8.50077 9.03701 8.55753C8.89997 8.6143 8.74917 8.62915 8.60368 8.60021C8.4582 8.57127 8.32456 8.49984 8.21967 8.39495C8.11478 8.29006 8.04335 8.15643 8.01441 8.01094C7.98547 7.86546 8.00033 7.71466 8.05709 7.57761C8.11386 7.44057 8.20999 7.32343 8.33332 7.24102C8.45666 7.15861 8.60166 7.11462 8.75 7.11462C8.94891 7.11462 9.13968 7.19364 9.28033 7.33429C9.42098 7.47495 9.5 7.66571 9.5 7.86462ZM4 10.3646C4 10.513 3.95601 10.658 3.8736 10.7813C3.79119 10.9046 3.67406 11.0008 3.53701 11.0575C3.39997 11.1143 3.24917 11.1292 3.10368 11.1002C2.9582 11.0713 2.82456 10.9998 2.71967 10.895C2.61478 10.7901 2.54335 10.6564 2.51441 10.5109C2.48547 10.3655 2.50032 10.2147 2.55709 10.0776C2.61386 9.94057 2.70999 9.82343 2.83332 9.74102C2.95666 9.65861 3.10166 9.61462 3.25 9.61462C3.44891 9.61462 3.63968 9.69364 3.78033 9.83429C3.92098 9.97495 4 10.1657 4 10.3646ZM6.75 10.3646C6.75 10.513 6.70601 10.658 6.6236 10.7813C6.54119 10.9046 6.42406 11.0008 6.28701 11.0575C6.14997 11.1143 5.99917 11.1292 5.85368 11.1002C5.7082 11.0713 5.57456 10.9998 5.46967 10.895C5.36478 10.7901 5.29335 10.6564 5.26441 10.5109C5.23547 10.3655 5.25032 10.2147 5.30709 10.0776C5.36386 9.94057 5.45999 9.82343 5.58332 9.74102C5.70666 9.65861 5.85166 9.61462 6 9.61462C6.19891 9.61462 6.38968 9.69364 6.53033 9.83429C6.67098 9.97495 6.75 10.1657 6.75 10.3646ZM9.5 10.3646C9.5 10.513 9.45601 10.658 9.3736 10.7813C9.29119 10.9046 9.17406 11.0008 9.03701 11.0575C8.89997 11.1143 8.74917 11.1292 8.60368 11.1002C8.4582 11.0713 8.32456 10.9998 8.21967 10.895C8.11478 10.7901 8.04335 10.6564 8.01441 10.5109C7.98547 10.3655 8.00033 10.2147 8.05709 10.0776C8.11386 9.94057 8.20999 9.82343 8.33332 9.74102C8.45666 9.65861 8.60166 9.61462 8.75 9.61462C8.94891 9.61462 9.13968 9.69364 9.28033 9.83429C9.42098 9.97495 9.5 10.1657 9.5 10.3646Z" fill="#2A2A2A"/>
</svg>
