<svg width="112" height="112" viewBox="0 0 112 112" fill="none" xmlns="http://www.w3.org/2000/svg">
<path d="M63.0004 72.4849C68.4871 69.0676 72.7115 63.9564 75.0346 57.9244C77.3577 51.8924 77.653 45.2679 75.8758 39.0532C74.0987 32.8384 70.3458 27.3715 65.185 23.4796C60.0242 19.5876 53.7362 17.4824 47.2723 17.4824C40.8084 17.4824 34.5204 19.5876 29.3596 23.4796C24.1988 27.3715 20.4459 32.8384 18.6688 39.0532C16.8916 45.2679 17.1869 51.8924 19.51 57.9244C21.8331 63.9564 26.0575 69.0676 31.5442 72.4849C22.5098 75.4424 14.3811 80.968 7.8448 88.7468C7.24724 89.4575 6.95647 90.3765 7.03646 91.3015C7.11646 92.2266 7.56067 93.082 8.27136 93.6796C8.98206 94.2772 9.90103 94.5679 10.8261 94.4879C11.7512 94.4079 12.6066 93.9637 13.2042 93.253C21.9848 82.7705 34.0861 76.9999 47.2504 76.9999C60.4148 76.9999 72.5161 82.7705 81.3229 93.253C81.9205 93.9637 82.7759 94.4079 83.701 94.4879C84.6261 94.5679 85.545 94.2772 86.2557 93.6796C86.9664 93.082 87.4106 92.2266 87.4906 91.3015C87.5706 90.3765 87.2799 89.4575 86.6823 88.7468C80.1417 80.968 72.0129 75.4424 63.0004 72.4849ZM24.5004 47.2499C24.5004 42.7504 25.8347 38.3519 28.3345 34.6107C30.8343 30.8695 34.3874 27.9536 38.5444 26.2317C42.7014 24.5098 47.2757 24.0592 51.6887 24.9371C56.1018 25.8149 60.1555 27.9816 63.3371 31.1632C66.5187 34.3449 68.6855 38.3985 69.5633 42.8116C70.4411 47.2247 69.9906 51.7989 68.2687 55.956C66.5468 60.113 63.6309 63.6661 59.8896 66.1659C56.1484 68.6657 51.75 69.9999 47.2504 69.9999C41.2189 69.993 35.4364 67.5939 31.1714 63.3289C26.9065 59.064 24.5074 53.2815 24.5004 47.2499ZM90.7204 28.6999C93.2147 34.5662 94.5003 40.8753 94.5003 47.2499C94.5003 53.6245 93.2147 59.9336 90.7204 65.7999C90.4512 66.4309 90.0024 66.9688 89.4299 67.3469C88.8574 67.7249 88.1865 67.9263 87.5004 67.9262C86.9211 67.9266 86.3506 67.7832 85.8403 67.5089C85.3301 67.2346 84.8958 66.8378 84.5767 66.3543C84.2575 65.8708 84.0634 65.3156 84.0117 64.7385C83.9599 64.1615 84.0523 63.5806 84.2804 63.048C86.4053 58.0521 87.5005 52.6789 87.5005 47.2499C87.5005 41.8209 86.4053 36.4477 84.2804 31.4518C83.9155 30.5978 83.9048 29.6338 84.2506 28.7719C84.5964 27.91 85.2705 27.2208 86.1245 26.8559C86.9785 26.4909 87.9425 26.4802 88.8044 26.826C89.6663 27.1719 90.3555 27.8459 90.7204 28.6999ZM108.5 47.2499C108.517 55.5453 106.836 63.7564 103.561 71.378C103.178 72.204 102.488 72.8483 101.638 73.174C100.788 73.4997 99.844 73.4813 99.0071 73.1226C98.1703 72.764 97.5061 72.0933 97.1556 71.253C96.8051 70.4127 96.7958 69.4688 97.1298 68.6218C100.014 61.8657 101.5 54.5958 101.5 47.2499C101.5 39.904 100.014 32.6341 97.1298 25.878C96.9328 25.4532 96.8231 24.9932 96.8071 24.5252C96.7911 24.0572 96.8691 23.5908 97.0366 23.1535C97.2041 22.7162 97.4577 22.317 97.7823 21.9795C98.1069 21.642 98.4959 21.3731 98.9263 21.1886C99.3567 21.0041 99.8197 20.9079 100.288 20.9057C100.756 20.9034 101.22 20.9951 101.652 21.1753C102.085 21.3556 102.476 21.6208 102.804 21.9551C103.132 22.2894 103.389 22.6862 103.561 23.1218C106.836 30.7434 108.517 38.9545 108.5 47.2499Z" fill="#2A2A2A"/>
</svg>
