<svg width="14" height="25" viewBox="0 0 14 25" fill="none" xmlns="http://www.w3.org/2000/svg">
<path d="M1.34432 17.1212C-0.205601 22.277 2.96039 23.9934 4.45095 24.1346C3.54095 22.7539 2.48455 19.1299 3.24085 17.1131C4.07746 14.8821 4.31057 11.6733 4.02169 9.69515L6.66325 12.0848C6.66325 12.0848 5.44238 8.54237 6.27252 6.3768C6.27252 6.3768 6.95828 11.2854 10.0993 15.1914C12.6655 18.3825 10.0209 23.052 8.92259 24.6523C13.7824 22.4854 14.43 18.6252 10.57 12.1318C8.19774 8.14111 6.86036 2.83344 7.46343 0.69393C6.5117 0.458844 3.36801 5.87829 4.58691 8.64305C4.58691 8.64305 2.80355 7.53471 2.42699 7.33075C2.69076 7.81099 3.10724 11.2569 1.34432 17.1212Z" fill="#04ADE6"/>
<path d="M7.2602 15.2503C5.51026 15.3586 3.16634 23.9607 6.91179 24.6865C8.0151 24.6575 9.35856 21.752 8.39255 20.3313C7.14478 18.4963 7.07622 16.8875 7.2602 15.2503Z" fill="#04ADE6"/>
</svg>
