<svg width="112" height="112" viewBox="0 0 112 112" fill="none" xmlns="http://www.w3.org/2000/svg">
<path d="M76.9996 101.5C76.9996 102.428 76.6309 103.318 75.9745 103.975C75.3181 104.631 74.4279 105 73.4996 105H38.4996C37.5713 105 36.6811 104.631 36.0247 103.975C35.3683 103.318 34.9996 102.428 34.9996 101.5C34.9996 100.572 35.3683 99.6814 36.0247 99.0251C36.6811 98.3687 37.5713 97.9999 38.4996 97.9999H73.4996C74.4279 97.9999 75.3181 98.3687 75.9745 99.0251C76.6309 99.6814 76.9996 100.572 76.9996 101.5ZM94.4996 45.4999C94.5147 51.3346 93.1966 57.0956 90.6459 62.3433C88.0953 67.591 84.3795 72.1866 79.7821 75.7793C78.9225 76.4382 78.2249 77.285 77.7426 78.2548C77.2604 79.2246 77.0062 80.2919 76.9996 81.3749V83.9999C76.9996 85.8565 76.2621 87.6369 74.9493 88.9497C73.6366 90.2624 71.8561 90.9999 69.9996 90.9999H41.9996C40.1431 90.9999 38.3626 90.2624 37.0498 88.9497C35.7371 87.6369 34.9996 85.8565 34.9996 83.9999V81.3749C34.9989 80.3048 34.7528 79.2491 34.2803 78.2889C33.8078 77.3287 33.1214 76.4896 32.274 75.8362C27.6881 72.2647 23.9748 67.6967 21.4151 62.4781C18.8555 57.2594 17.5165 51.5269 17.4996 45.7143C17.3858 24.8631 34.2383 7.49869 55.0721 6.99994C60.2055 6.87624 65.3118 7.78068 70.0904 9.66002C74.869 11.5394 79.2234 14.3556 82.8973 17.9431C86.5712 21.5305 89.4903 25.8167 91.4828 30.5492C93.4754 35.2817 94.5011 40.3651 94.4996 45.4999ZM87.4996 45.4999C87.5008 41.2985 86.6615 37.1392 85.0311 33.267C83.4007 29.3947 81.0121 25.8878 78.006 22.9526C74.9998 20.0173 71.4368 17.7132 67.5268 16.1757C63.6167 14.6382 59.4386 13.8984 55.2383 13.9999C38.1758 14.4024 24.4077 28.6081 24.4996 45.6706C24.5156 50.4244 25.6126 55.1123 27.7076 59.3796C29.8026 63.6469 32.8407 67.3819 36.5921 70.3018C38.2784 71.6127 39.6424 73.2921 40.5797 75.2114C41.517 77.1307 42.0027 79.239 41.9996 81.3749V83.9999H69.9996V81.3749C70.0045 79.2329 70.4985 77.1203 71.4439 75.1983C72.3894 73.2762 73.7614 71.5955 75.4552 70.2843C79.2181 67.3436 82.2594 63.5819 84.3468 59.2866C86.4342 54.9912 87.5126 50.2757 87.4996 45.4999ZM80.4515 41.4137C79.5439 36.3444 77.105 31.6748 73.463 28.0336C69.8211 24.3925 65.151 21.9545 60.0815 21.0481C59.6282 20.9717 59.1642 20.9853 58.7162 21.0882C58.2682 21.191 57.8448 21.3811 57.4702 21.6477C57.0956 21.9142 56.7772 22.2518 56.5332 22.6414C56.2891 23.0309 56.1241 23.4648 56.0477 23.9181C55.9713 24.3714 55.9849 24.8353 56.0878 25.2833C56.1907 25.7314 56.3808 26.1548 56.6473 26.5293C56.9138 26.9039 57.2515 27.2223 57.641 27.4664C58.0306 27.7105 58.4644 27.8754 58.9177 27.9518C66.1671 29.1724 72.3183 35.3237 73.5477 42.5862C73.6862 43.4014 74.1088 44.1412 74.7407 44.6745C75.3725 45.2078 76.1728 45.5003 76.9996 45.4999C77.1974 45.4988 77.3948 45.4827 77.5902 45.4518C78.5051 45.2956 79.3204 44.7825 79.857 44.0252C80.3936 43.268 80.6074 42.3286 80.4515 41.4137Z" fill="#2A2A2A"/>
</svg>
