<svg width="32" height="33" viewBox="0 0 32 33" fill="none" xmlns="http://www.w3.org/2000/svg">
<path d="M16.002 10.6865C14.8153 10.6865 13.6552 11.0384 12.6685 11.6977C11.6818 12.357 10.9128 13.2941 10.4587 14.3904C10.0046 15.4868 9.88573 16.6932 10.1172 17.8571C10.3488 19.021 10.9202 20.09 11.7593 20.9292C12.5984 21.7683 13.6675 22.3397 14.8314 22.5712C15.9953 22.8027 17.2017 22.6839 18.2981 22.2298C19.3944 21.7757 20.3315 21.0066 20.9908 20.0199C21.6501 19.0332 22.002 17.8732 22.002 16.6865C22.0003 15.0957 21.3676 13.5706 20.2428 12.4457C19.1179 11.3209 17.5927 10.6882 16.002 10.6865ZM16.002 20.6865C15.2108 20.6865 14.4375 20.4519 13.7797 20.0124C13.1219 19.5729 12.6092 18.9482 12.3064 18.2173C12.0037 17.4864 11.9245 16.6821 12.0788 15.9062C12.2332 15.1302 12.6141 14.4175 13.1735 13.8581C13.7329 13.2987 14.4457 12.9177 15.2216 12.7634C15.9975 12.609 16.8018 12.6883 17.5327 12.991C18.2636 13.2938 18.8883 13.8064 19.3278 14.4642C19.7674 15.122 20.002 15.8954 20.002 16.6865C20.002 17.7474 19.5805 18.7648 18.8304 19.5149C18.0802 20.2651 17.0628 20.6865 16.002 20.6865ZM22.002 3.68652H10.002C8.14605 3.68851 6.36672 4.42664 5.0544 5.73897C3.74207 7.05129 3.00394 8.83062 3.00195 10.6865V22.6865C3.00394 24.5424 3.74207 26.3218 5.0544 27.6341C6.36672 28.9464 8.14605 29.6845 10.002 29.6865H22.002C23.8579 29.6845 25.6372 28.9464 26.9495 27.6341C28.2618 26.3218 29 24.5424 29.002 22.6865V10.6865C29 8.83062 28.2618 7.05129 26.9495 5.73897C25.6372 4.42664 23.8579 3.68851 22.002 3.68652ZM27.002 22.6865C27.002 24.0126 26.4752 25.2844 25.5375 26.2221C24.5998 27.1597 23.328 27.6865 22.002 27.6865H10.002C8.67587 27.6865 7.4041 27.1597 6.46642 26.2221C5.52874 25.2844 5.00195 24.0126 5.00195 22.6865V10.6865C5.00195 9.36044 5.52874 8.08867 6.46642 7.15099C7.4041 6.21331 8.67587 5.68652 10.002 5.68652H22.002C23.328 5.68652 24.5998 6.21331 25.5375 7.15099C26.4752 8.08867 27.002 9.36044 27.002 10.6865V22.6865ZM24.002 10.1865C24.002 10.4832 23.914 10.7732 23.7492 11.0199C23.5843 11.2666 23.3501 11.4588 23.076 11.5723C22.8019 11.6859 22.5003 11.7156 22.2093 11.6577C21.9183 11.5998 21.6511 11.457 21.4413 11.2472C21.2315 11.0374 21.0887 10.7701 21.0308 10.4792C20.9729 10.1882 21.0026 9.88659 21.1161 9.6125C21.2297 9.33841 21.4219 9.10414 21.6686 8.93932C21.9153 8.7745 22.2053 8.68652 22.502 8.68652C22.8998 8.68652 23.2813 8.84456 23.5626 9.12586C23.8439 9.40717 24.002 9.7887 24.002 10.1865Z" fill="#3D3D3D"/>
</svg>
