<svg width="56" height="69" viewBox="0 0 56 69" fill="none" xmlns="http://www.w3.org/2000/svg">
<path d="M40.3333 35.8174C40.3333 36.4804 40.0699 37.1163 39.6011 37.5852C39.1322 38.054 38.4964 38.3174 37.8333 38.3174H17.8333C17.1703 38.3174 16.5344 38.054 16.0655 37.5852C15.5967 37.1163 15.3333 36.4804 15.3333 35.8174C15.3333 35.1543 15.5967 34.5185 16.0655 34.0496C16.5344 33.5808 17.1703 33.3174 17.8333 33.3174H37.8333C38.4964 33.3174 39.1322 33.5808 39.6011 34.0496C40.0699 34.5185 40.3333 35.1543 40.3333 35.8174ZM37.8333 43.3174H17.8333C17.1703 43.3174 16.5344 43.5808 16.0655 44.0496C15.5967 44.5185 15.3333 45.1543 15.3333 45.8174C15.3333 46.4804 15.5967 47.1163 16.0655 47.5852C16.5344 48.054 17.1703 48.3174 17.8333 48.3174H37.8333C38.4964 48.3174 39.1322 48.054 39.6011 47.5852C40.0699 47.1163 40.3333 46.4804 40.3333 45.8174C40.3333 45.1543 40.0699 44.5185 39.6011 44.0496C39.1322 43.5808 38.4964 43.3174 37.8333 43.3174ZM55.3333 8.31738V58.3174C55.3333 60.9695 54.2797 63.5131 52.4044 65.3885C50.529 67.2638 47.9855 68.3174 45.3333 68.3174H10.3333C7.68115 68.3174 5.13761 67.2638 3.26224 65.3885C1.38688 63.5131 0.333313 60.9695 0.333313 58.3174V8.31738C0.333313 7.65434 0.596706 7.01846 1.06555 6.54962C1.53439 6.08078 2.17027 5.81738 2.83331 5.81738H10.3333V3.31738C10.3333 2.65434 10.5967 2.01846 11.0655 1.54962C11.5344 1.08077 12.1703 0.817383 12.8333 0.817383C13.4964 0.817383 14.1322 1.08077 14.6011 1.54962C15.0699 2.01846 15.3333 2.65434 15.3333 3.31738V5.81738H25.3333V3.31738C25.3333 2.65434 25.5967 2.01846 26.0655 1.54962C26.5344 1.08077 27.1703 0.817383 27.8333 0.817383C28.4964 0.817383 29.1322 1.08077 29.6011 1.54962C30.0699 2.01846 30.3333 2.65434 30.3333 3.31738V5.81738H40.3333V3.31738C40.3333 2.65434 40.5967 2.01846 41.0655 1.54962C41.5344 1.08077 42.1703 0.817383 42.8333 0.817383C43.4964 0.817383 44.1322 1.08077 44.6011 1.54962C45.0699 2.01846 45.3333 2.65434 45.3333 3.31738V5.81738H52.8333C53.4964 5.81738 54.1322 6.08078 54.6011 6.54962C55.0699 7.01846 55.3333 7.65434 55.3333 8.31738ZM50.3333 10.8174H45.3333V13.3174C45.3333 13.9804 45.0699 14.6163 44.6011 15.0851C44.1322 15.554 43.4964 15.8174 42.8333 15.8174C42.1703 15.8174 41.5344 15.554 41.0655 15.0851C40.5967 14.6163 40.3333 13.9804 40.3333 13.3174V10.8174H30.3333V13.3174C30.3333 13.9804 30.0699 14.6163 29.6011 15.0851C29.1322 15.554 28.4964 15.8174 27.8333 15.8174C27.1703 15.8174 26.5344 15.554 26.0655 15.0851C25.5967 14.6163 25.3333 13.9804 25.3333 13.3174V10.8174H15.3333V13.3174C15.3333 13.9804 15.0699 14.6163 14.6011 15.0851C14.1322 15.554 13.4964 15.8174 12.8333 15.8174C12.1703 15.8174 11.5344 15.554 11.0655 15.0851C10.5967 14.6163 10.3333 13.9804 10.3333 13.3174V10.8174H5.33331V58.3174C5.33331 59.6435 5.8601 60.9152 6.79778 61.8529C7.73546 62.7906 9.00723 63.3174 10.3333 63.3174H45.3333C46.6594 63.3174 47.9312 62.7906 48.8688 61.8529C49.8065 60.9152 50.3333 59.6435 50.3333 58.3174V10.8174Z" fill="white"/>
</svg>
