<svg width="32" height="33" viewBox="0 0 32 33" fill="none" xmlns="http://www.w3.org/2000/svg">
<path d="M27.002 3.68652H5.00195C4.47152 3.68652 3.96281 3.89724 3.58774 4.27231C3.21267 4.64738 3.00195 5.15609 3.00195 5.68652V27.6865C3.00195 28.217 3.21267 28.7257 3.58774 29.1007C3.96281 29.4758 4.47152 29.6865 5.00195 29.6865H27.002C27.5324 29.6865 28.0411 29.4758 28.4162 29.1007C28.7912 28.7257 29.002 28.217 29.002 27.6865V5.68652C29.002 5.15609 28.7912 4.64738 28.4162 4.27231C28.0411 3.89724 27.5324 3.68652 27.002 3.68652ZM27.002 27.6865H5.00195V5.68652H27.002V27.6865ZM12.002 14.6865V22.6865C12.002 22.9517 11.8966 23.2061 11.7091 23.3936C11.5215 23.5812 11.2672 23.6865 11.002 23.6865C10.7367 23.6865 10.4824 23.5812 10.2948 23.3936C10.1073 23.2061 10.002 22.9517 10.002 22.6865V14.6865C10.002 14.4213 10.1073 14.167 10.2948 13.9794C10.4824 13.7919 10.7367 13.6865 11.002 13.6865C11.2672 13.6865 11.5215 13.7919 11.7091 13.9794C11.8966 14.167 12.002 14.4213 12.002 14.6865ZM23.002 18.1865V22.6865C23.002 22.9517 22.8966 23.2061 22.7091 23.3936C22.5215 23.5812 22.2672 23.6865 22.002 23.6865C21.7367 23.6865 21.4824 23.5812 21.2948 23.3936C21.1073 23.2061 21.002 22.9517 21.002 22.6865V18.1865C21.002 17.5235 20.7386 16.8876 20.2697 16.4188C19.8009 15.9499 19.165 15.6865 18.502 15.6865C17.8389 15.6865 17.203 15.9499 16.7342 16.4188C16.2653 16.8876 16.002 17.5235 16.002 18.1865V22.6865C16.002 22.9517 15.8966 23.2061 15.7091 23.3936C15.5215 23.5812 15.2672 23.6865 15.002 23.6865C14.7367 23.6865 14.4824 23.5812 14.2948 23.3936C14.1073 23.2061 14.002 22.9517 14.002 22.6865V14.6865C14.0032 14.4416 14.0943 14.2056 14.258 14.0234C14.4216 13.8411 14.6465 13.7253 14.8899 13.6979C15.1333 13.6704 15.3783 13.7333 15.5785 13.8745C15.7786 14.0157 15.92 14.2255 15.9757 14.464C16.6522 14.0051 17.4409 13.7391 18.2571 13.6947C19.0734 13.6502 19.8863 13.8289 20.6087 14.2116C21.331 14.5943 21.9354 15.1665 22.3571 15.8668C22.7788 16.5671 23.0017 17.3691 23.002 18.1865ZM12.502 11.1865C12.502 11.4832 12.414 11.7732 12.2492 12.0199C12.0843 12.2666 11.8501 12.4588 11.576 12.5723C11.3019 12.6859 11.0003 12.7156 10.7093 12.6577C10.4183 12.5998 10.1511 12.457 9.94129 12.2472C9.73151 12.0374 9.58865 11.7701 9.53078 11.4792C9.4729 11.1882 9.5026 10.8866 9.61613 10.6125C9.72967 10.3384 9.92192 10.1041 10.1686 9.93932C10.4153 9.7745 10.7053 9.68652 11.002 9.68652C11.3998 9.68652 11.7813 9.84456 12.0626 10.1259C12.3439 10.4072 12.502 10.7887 12.502 11.1865Z" fill="#3D3D3D"/>
</svg>
