<svg width="212" height="57" viewBox="0 0 212 57" fill="none" xmlns="http://www.w3.org/2000/svg">
<path d="M15.246 29.5856C12.4559 38.867 18.1553 41.9568 20.8386 42.211C19.2004 39.7255 17.2987 33.2017 18.6602 29.571C20.1662 25.5549 20.5859 19.7782 20.0658 16.2173L24.8211 20.519C24.8211 20.519 22.6233 14.142 24.1177 10.2436C24.1177 10.2436 25.3523 19.0801 31.0067 26.1115C35.6264 31.8561 30.8655 40.2621 28.8884 43.1431C37.6371 39.2422 38.8028 32.2931 31.8541 20.6038C27.5835 13.4197 25.176 3.86487 26.2616 0.0133334C24.5483 -0.409867 18.8891 9.3462 21.0833 14.3233C21.0833 14.3233 17.8729 12.3281 17.195 11.9609C17.6699 12.8254 18.4196 19.0288 15.246 29.5856Z" fill="#04ADE6"/>
<path d="M25.8958 26.2176C22.7455 26.4126 18.526 41.898 25.2686 43.2047C27.2547 43.1524 29.6732 37.9219 27.9342 35.3645C25.688 32.0611 25.5646 29.165 25.8958 26.2176Z" fill="#04ADE6"/>
<path d="M12.1545 51.8647C8.60632 54.3828 2.75928 54.2493 0.279297 53.8678C7.64761 61.7369 16.2321 50.6486 23.3144 50.5055C23.3144 50.5055 16.5898 48.7171 12.1545 51.8647Z" fill="#04ADE6"/>
<path d="M38.4607 51.8647C42.0089 54.3828 47.8559 54.2493 50.3359 53.8678C42.9676 61.7369 34.3831 50.6486 27.3009 50.5055C27.3009 50.5055 34.0254 48.7171 38.4607 51.8647Z" fill="#04ADE6"/>
<path fill-rule="evenodd" clip-rule="evenodd" d="M18.1851 24.5769C14.7045 24.2763 10.9549 25.2763 4.8577 28.6862L0.0647568 51.7214C-0.875759 53.2234 8.66084 51.0322 13.5853 47.5722C16.2908 45.6713 21.5261 48.0253 23.6007 49.0745C20.6579 43.4732 15.5659 43.6821 10.3656 45.8552C10.3656 45.8552 3.57057 49.79 3.71309 48.4306C3.85562 47.0713 5.57362 34.9817 8.07689 30.7608C9.7951 27.8637 13.7043 27.0225 18.1851 27.312V24.5769ZM32.7004 26.9298C35.7945 26.8899 38.7177 27.8322 42.5581 30.8324C43.9883 33.2645 45.419 41.0621 46.2065 47.7868C43.5101 47.8725 39.7681 45.283 39.7681 45.283C32.9803 43.5157 30.2355 44.3349 27.1775 48.9314C32.9671 46.2066 37.7435 48.1438 42.155 49.9329C45.1563 51.1501 47.9888 52.2989 50.8564 51.8645L45.1334 28.6862C40.1948 25.6166 36.5904 24.3292 32.7004 24.4424V26.9298Z" fill="#04ADE6"/>
<path fill-rule="evenodd" clip-rule="evenodd" d="M27.2346 6.09928C36.5366 7.01014 43.8064 14.8817 43.8064 24.4574C43.8064 25.3666 43.7408 26.2604 43.6143 27.1344L45.1726 28.0375C45.9473 25.8424 46.3689 23.4796 46.3689 21.018C46.3689 9.8397 37.6749 0.699548 26.7034 0.0380556C26.4849 1.60555 26.6834 3.71794 27.2346 6.09928ZM25.12 0.00195312C23.7401 1.33828 22.0765 3.84971 21.0367 6.54122C13.0072 8.51717 7.05003 15.789 7.05003 24.4574C7.05003 25.3004 7.10637 26.1302 7.21549 26.9432L5.62379 27.8655C4.88723 25.7191 4.4873 23.4154 4.4873 21.018C4.4873 9.5132 13.6968 0.167346 25.12 0.00195312Z" fill="#04ADE6"/>
<path d="M56.0246 26.3433V25.8982C56.0246 25.6943 56.071 25.5367 56.1637 25.4254C56.2749 25.2956 56.3584 25.2214 56.414 25.2029C56.4696 25.1844 56.5253 25.1658 56.5809 25.1473C56.6551 25.1102 56.7385 25.0916 56.8312 25.0916L58.1385 24.9804V8.87628L56.1359 8.7094C56.0802 7.87499 56.3491 7.45779 56.9425 7.45779H62.7555C66.0746 7.45779 68.4851 8.21803 69.9871 9.73851C71.5076 11.259 72.2678 13.5953 72.2678 16.7475C72.2678 19.8812 71.4612 22.2639 69.848 23.8957C68.2348 25.5274 65.8799 26.3433 62.7833 26.3433H56.0246ZM62.1714 25.0082C64.7674 25.0453 66.7421 24.4056 68.0957 23.0891C69.4493 21.754 70.1261 19.6587 70.1261 16.8032C70.1261 13.9291 69.4215 11.8523 68.0123 10.5729C66.6031 9.27495 64.4614 8.67232 61.5874 8.76503L60.1689 8.82066H60.141V24.9804L62.1714 25.0082ZM82.1705 26.3433H76.7469V26.1208C76.7469 25.6386 76.8767 25.3234 77.1363 25.1751C77.2661 25.1195 77.4237 25.0824 77.6091 25.0638L78.8885 25.0082V8.9041L76.8581 8.73722C76.784 7.92135 77.0343 7.51341 77.6091 7.51341H83.0328V7.73592C83.0328 8.23657 82.903 8.54252 82.6434 8.65377C82.5136 8.72794 82.356 8.7743 82.1705 8.79284L80.8911 8.84847V24.9526L82.9215 25.1195C82.9957 25.9353 82.7454 26.3433 82.1705 26.3433ZM97.5674 17.8323H103.408V18.0548C103.408 18.7038 103.121 19.0561 102.546 19.1117L101.851 19.1952H101.795V24.3685C101.183 25.0916 100.265 25.6757 99.0415 26.1208C97.8177 26.5472 96.5568 26.7605 95.2588 26.7605C92.8483 26.7605 90.9663 25.9631 89.6127 24.3685C88.2776 22.7553 87.573 20.4375 87.4988 17.4151C87.4246 14.3741 88.1478 11.8894 89.6683 9.96102C91.1888 8.01406 93.3582 7.04058 96.1767 7.04058C98.0495 7.04058 99.4494 7.39289 100.377 8.0975C101.322 8.80211 101.795 9.63652 101.795 10.6007C101.795 11.0643 101.656 11.463 101.378 11.7967C101.118 12.1119 100.682 12.2695 100.071 12.2695C100.071 9.74778 98.6428 8.48689 95.7873 8.48689C93.7662 8.48689 92.2271 9.26568 91.1702 10.8232C90.1318 12.3623 89.6127 14.4112 89.6127 16.9701C89.6127 19.5289 90.0948 21.5408 91.059 23.0056C92.0417 24.4705 93.5993 25.2029 95.7317 25.2029C97.5303 25.2029 98.9302 24.7764 99.9315 23.9235V19.2508L96.8164 19.0839C96.7422 18.2495 96.9925 17.8323 97.5674 17.8323ZM119.511 7.51341H124.462C124.462 7.51341 124.462 7.58758 124.462 7.73592C124.462 8.23657 124.332 8.54252 124.072 8.65377C123.943 8.72794 123.785 8.7743 123.6 8.79284L122.292 8.84847V26.0373C121.829 26.2413 121.347 26.3433 120.846 26.3433L110.917 11.0457V24.9526L112.947 25.1195C113.021 25.9353 112.771 26.3433 112.196 26.3433H107.245C107.245 26.3433 107.245 26.2691 107.245 26.1208C107.245 25.6386 107.375 25.3234 107.635 25.1751C107.764 25.1195 107.922 25.0824 108.107 25.0638L109.387 25.0082V8.9041L107.356 8.73722C107.282 7.92135 107.533 7.51341 108.107 7.51341H111.056L120.79 22.5328V8.9041L118.76 8.73722C118.686 7.92135 118.936 7.51341 119.511 7.51341ZM133.934 26.3433H128.511V26.1208C128.511 25.6386 128.641 25.3234 128.9 25.1751C129.03 25.1195 129.188 25.0824 129.373 25.0638L130.652 25.0082V8.9041L128.622 8.73722C128.548 7.92135 128.798 7.51341 129.373 7.51341H134.797V7.73592C134.797 8.23657 134.667 8.54252 134.407 8.65377C134.277 8.72794 134.12 8.7743 133.934 8.79284L132.655 8.84847V24.9526L134.685 25.1195C134.76 25.9353 134.509 26.3433 133.934 26.3433ZM138.734 7.51341H154.393V10.8511C154.393 11.4444 153.985 11.704 153.169 11.6298L152.975 8.93191H147.607V24.9526L149.721 25.1195C149.795 25.9353 149.535 26.3433 148.942 26.3433H143.407C143.407 26.3433 143.407 26.2691 143.407 26.1208C143.407 25.6386 143.537 25.3234 143.796 25.1751C143.926 25.1195 144.084 25.0824 144.269 25.0638L145.604 25.0082V8.93191H140.153L139.958 11.6298C139.142 11.704 138.734 11.4444 138.734 10.8511V7.51341ZM169.15 7.45779H173.488C173.488 7.45779 173.488 7.53196 173.488 7.6803C173.488 8.32928 173.201 8.68159 172.626 8.73722L172.042 8.82066L166.507 18.6667V24.9526L168.538 25.1195C168.612 25.9353 168.361 26.3433 167.787 26.3433H162.307V26.1208C162.307 25.6386 162.446 25.3234 162.725 25.1751C162.854 25.1195 163.012 25.0824 163.197 25.0638L164.449 25.0082V18.7223L158.886 8.87628H158.858L157.301 8.7094C157.208 7.87499 157.468 7.45779 158.08 7.45779H163.281V7.6803C163.281 8.18094 163.151 8.48689 162.891 8.59815C162.762 8.67232 162.604 8.71867 162.419 8.73722L161.167 8.82066L165.84 17.1926L170.345 8.87628L168.371 8.7094C168.278 7.87499 168.538 7.45779 169.15 7.45779Z" fill="#060606"/>
<path d="M61.4474 49.3433H56.0245V49.1208C56.0245 48.6387 56.1542 48.3236 56.4138 48.1752C56.5436 48.1196 56.7012 48.0825 56.8866 48.064L58.1658 48.0084V31.9064L56.1357 31.7395C56.0615 30.9238 56.3118 30.5159 56.8866 30.5159H62.3095V30.7384C62.3095 31.239 62.1797 31.5449 61.9202 31.6561C61.7904 31.7303 61.6328 31.7766 61.4474 31.7952L60.1682 31.8508V47.9528L62.1983 48.1196C62.2724 48.9354 62.0222 49.3433 61.4474 49.3433ZM79.1226 30.5159H84.0728C84.0728 30.5159 84.0728 30.5901 84.0728 30.7384C84.0728 31.239 83.943 31.5449 83.6835 31.6561C83.5537 31.7303 83.3961 31.7766 83.2107 31.7952L81.9036 31.8508V49.0374C81.4401 49.2413 80.9581 49.3433 80.4575 49.3433L70.5293 34.0478V47.9528L72.5595 48.1196C72.6336 48.9354 72.3833 49.3433 71.8086 49.3433H66.8584C66.8584 49.3433 66.8584 49.2691 66.8584 49.1208C66.8584 48.6387 66.9882 48.3236 67.2478 48.1752C67.3775 48.1196 67.5351 48.0825 67.7205 48.064L68.9998 48.0084V31.9064L66.9697 31.7395C66.8955 30.9238 67.1458 30.5159 67.7205 30.5159H70.6684L80.4019 45.5333V31.9064L78.3718 31.7395C78.2976 30.9238 78.5479 30.5159 79.1226 30.5159ZM93.5441 49.3433H88.1211V49.1208C88.1211 48.6387 88.2509 48.3236 88.5105 48.1752C88.6402 48.1196 88.7978 48.0825 88.9832 48.064L90.2625 48.0084V31.9064L88.2324 31.7395C88.1582 30.9238 88.4085 30.5159 88.9832 30.5159H94.4062V30.7384C94.4062 31.239 94.2764 31.5449 94.0168 31.6561C93.8871 31.7303 93.7295 31.7766 93.5441 31.7952L92.2648 31.8508V47.9528L94.2949 48.1196C94.3691 48.9354 94.1188 49.3433 93.5441 49.3433ZM98.3432 30.5159H114V33.8531C114 34.4464 113.592 34.7059 112.777 34.6318L112.582 31.9342H107.215V47.9528L109.328 48.1196C109.402 48.9354 109.143 49.3433 108.55 49.3433H103.015C103.015 49.3433 103.015 49.2691 103.015 49.1208C103.015 48.6387 103.145 48.3236 103.405 48.1752C103.534 48.1196 103.692 48.0825 103.877 48.064L105.212 48.0084V31.9342H99.7616L99.5669 34.6318C98.7511 34.7059 98.3432 34.4464 98.3432 33.8531V30.5159ZM123.359 49.3433H117.936V49.1208C117.936 48.6387 118.066 48.3236 118.326 48.1752C118.456 48.1196 118.613 48.0825 118.799 48.064L120.078 48.0084V31.9064L118.048 31.7395C117.974 30.9238 118.224 30.5159 118.799 30.5159H124.222V30.7384C124.222 31.239 124.092 31.5449 123.832 31.6561C123.702 31.7303 123.545 31.7766 123.359 31.7952L122.08 31.8508V47.9528L124.11 48.1196C124.184 48.9354 123.934 49.3433 123.359 49.3433ZM143.482 49.3433H138.142V49.1208C138.142 48.6387 138.272 48.3236 138.532 48.1752C138.662 48.1196 138.819 48.0825 139.005 48.064L140.284 48.0084L138.81 42.9192H132.914L131.44 47.9528L133.526 48.1196C133.6 48.9354 133.35 49.3433 132.775 49.3433H127.908V49.1208C127.908 48.6387 128.038 48.3236 128.298 48.1752C128.427 48.1196 128.585 48.0825 128.77 48.064L129.883 48.0084L135.25 30.4881C135.843 30.4139 136.446 30.4139 137.058 30.4881L142.425 47.9528L144.233 48.1196C144.307 48.9354 144.057 49.3433 143.482 49.3433ZM133.331 41.5287H138.393L135.89 32.8241L133.331 41.5287ZM147.357 30.5159H163.014V33.8531C163.014 34.4464 162.606 34.7059 161.791 34.6318L161.596 31.9342H156.229V47.9528L158.342 48.1196C158.416 48.9354 158.157 49.3433 157.564 49.3433H152.029C152.029 49.3433 152.029 49.2691 152.029 49.1208C152.029 48.6387 152.159 48.3236 152.419 48.1752C152.548 48.1196 152.706 48.0825 152.891 48.064L154.226 48.0084V31.9342H148.776L148.581 34.6318C147.765 34.7059 147.357 34.4464 147.357 33.8531V30.5159ZM172.373 49.3433H166.951V49.1208C166.951 48.6387 167.08 48.3236 167.34 48.1752C167.47 48.1196 167.627 48.0825 167.813 48.064L169.092 48.0084V31.9064L167.062 31.7395C166.988 30.9238 167.238 30.5159 167.813 30.5159H173.236V30.7384C173.236 31.239 173.106 31.5449 172.846 31.6561C172.716 31.7303 172.559 31.7766 172.373 31.7952L171.094 31.8508V47.9528L173.124 48.1196C173.198 48.9354 172.948 49.3433 172.373 49.3433ZM189.242 30.5159H193.553C193.553 30.5159 193.553 30.5901 193.553 30.7384C193.553 31.3873 193.265 31.7395 192.691 31.7952L192.134 31.8508L185.766 49.3433H184.236L178.313 31.9064L176.755 31.7395C176.681 30.9238 176.941 30.5159 177.534 30.5159H182.679V30.7384C182.679 31.239 182.549 31.5449 182.29 31.6561C182.16 31.7303 182.002 31.7766 181.817 31.7952L180.538 31.8508H180.51L185.321 46.6735L190.494 31.9064L188.491 31.7395C188.417 30.9238 188.667 30.5159 189.242 30.5159ZM197.092 49.3433V48.8983C197.092 48.4904 197.277 48.2309 197.648 48.1196C197.741 48.0825 197.843 48.064 197.954 48.064L199.233 48.0084V31.9064L197.203 31.7395C197.129 30.9238 197.388 30.5159 197.982 30.5159H209.718V34.4371C209.718 35.0118 209.31 35.2621 208.494 35.188L208.216 32.0454L201.235 31.9064V39.3317L206.575 38.9701C206.705 39.6561 206.705 40.3236 206.575 40.9725L201.235 40.6665V47.9528L208.605 47.7581L208.883 44.8102C209.699 44.7361 210.107 44.9864 210.107 45.5611V49.3433H197.092Z" fill="#767676"/>
</svg>
