<svg width="890" height="1477" viewBox="0 0 890 1477" fill="none" xmlns="http://www.w3.org/2000/svg">
<path d="M640.901 909.561C748.847 1066.44 866.28 1017.08 903.169 979.082C844.932 973.629 721.561 922.562 682.655 857.055C639.619 784.591 556.243 707.133 495.271 671.32L619.671 651.329C619.671 651.329 494.911 606.606 453.535 535.768C453.535 535.768 604.147 625.496 781.44 625.287C926.287 625.116 996.585 801.44 1016.43 867.166C1064.21 685.115 972.04 581.806 707.444 544.58C544.827 521.701 368.782 441.12 323.1 377.124C295.548 398.179 375.492 604.872 478.753 632.438C478.753 632.438 408.7 657.11 394.738 662.985C413.826 666.337 518.121 731.12 640.901 909.561Z" fill="#04ADE6" fill-opacity="0.1"/>
<path d="M720.225 704.926C684.479 755.606 869.936 1010.68 972.866 923.403C996.486 892.319 946.058 790.94 885.479 786.148C807.231 779.959 761.325 746.241 720.225 704.926Z" fill="#04ADE6" fill-opacity="0.1"/>
<path d="M944.332 1230.86C939.299 1316.21 865.36 1404.18 829.02 1437.5C1040.22 1421.32 975.828 1153.41 1060.72 1043.11C1060.72 1043.11 950.623 1124.18 944.332 1230.86Z" fill="#04ADE6" fill-opacity="0.1"/>
<path fill-rule="evenodd" clip-rule="evenodd" d="M600.287 802.914C552.877 852.564 522.098 922.328 499.39 1057.72L793.509 1414.4C804.967 1447.29 888.64 1274.18 896.159 1156.16C900.289 1091.33 1000.74 1040.03 1042.33 1021.13C920.296 997.365 860.887 1077.98 830.253 1184.4C830.253 1184.4 807.013 1336.92 787.932 1318.03C768.85 1299.13 604.681 1124.15 570.768 1033.88C547.49 971.925 582.669 901.663 642.205 836.543L600.287 802.914ZM814.82 609.371C852.25 561.466 902.635 528.255 995.827 506.285C1050.69 514.269 1187.79 588.216 1300.54 658.83C1268.7 701.211 1183 726.723 1183 726.723C1072.46 809.028 1051.26 861.168 1084.11 964.554C1113.54 842.316 1201.96 792.928 1283.62 747.313C1339.18 716.279 1391.61 686.992 1420.21 637.698L994.6 440.425C886.838 478.373 822.791 517.783 776.697 578.787L814.82 609.371Z" fill="#04ADE6" fill-opacity="0.1"/>
<path fill-rule="evenodd" clip-rule="evenodd" d="M428.367 437.008C556.7 305.641 766.728 291.006 913.489 408.743C927.425 419.922 940.319 431.917 952.158 444.604L985.16 431.823C961.04 392.959 930.011 357.446 892.282 327.179C720.959 189.738 473.976 210.604 328.937 370.623C350.275 393.246 385.092 416.176 428.367 437.008ZM308.915 394.448C312.429 432.029 330.466 488.405 358.933 537.433C290.489 684.794 328.695 865.511 461.552 972.093C474.473 982.458 487.884 991.798 501.686 1000.12L496.252 1035.86C454.298 1020.76 414.073 998.56 377.328 969.082C200.998 827.625 170.994 571.561 308.915 394.448Z" fill="#04ADE6" fill-opacity="0.1"/>
</svg>
