<svg width="66" height="69" viewBox="0 0 66 69" fill="none" xmlns="http://www.w3.org/2000/svg">
<path d="M60.6666 8.31738H35.6666V3.31738C35.6666 2.65434 35.4032 2.01846 34.9344 1.54962C34.4656 1.08077 33.8297 0.817383 33.1666 0.817383C32.5036 0.817383 31.8677 1.08077 31.3989 1.54962C30.93 2.01846 30.6666 2.65434 30.6666 3.31738V8.31738H5.66663C4.34054 8.31738 3.06877 8.84417 2.13109 9.78185C1.19341 10.7195 0.666626 11.9913 0.666626 13.3174V50.8174C0.666626 52.1435 1.19341 53.4152 2.13109 54.3529C3.06877 55.2906 4.34054 55.8174 5.66663 55.8174H17.9666L11.2135 64.2549C10.7991 64.7729 10.6074 65.4343 10.6807 66.0936C10.754 66.7529 11.0861 67.3561 11.6041 67.7705C12.1221 68.1849 12.7835 68.3766 13.4428 68.3033C14.1021 68.23 14.7053 67.8979 15.1198 67.3799L24.3666 55.8174H41.9666L51.2135 67.3799C51.4187 67.6364 51.6724 67.8499 51.9601 68.0084C52.2478 68.1668 52.564 68.267 52.8904 68.3033C53.2169 68.3396 53.5473 68.3112 53.8628 68.2198C54.1782 68.1284 54.4726 67.9757 54.7291 67.7705C54.9856 67.5653 55.1992 67.3116 55.3576 67.0239C55.5161 66.7362 55.6163 66.4201 55.6525 66.0936C55.6888 65.7671 55.6604 65.4367 55.569 65.1212C55.4776 64.8058 55.3249 64.5114 55.1198 64.2549L48.3666 55.8174H60.6666C61.9927 55.8174 63.2645 55.2906 64.2022 54.3529C65.1398 53.4152 65.6666 52.1435 65.6666 50.8174V13.3174C65.6666 11.9913 65.1398 10.7195 64.2022 9.78185C63.2645 8.84417 61.9927 8.31738 60.6666 8.31738ZM60.6666 50.8174H5.66663V13.3174H60.6666V50.8174ZM25.6666 33.3174V40.8174C25.6666 41.4804 25.4032 42.1163 24.9344 42.5852C24.4656 43.054 23.8297 43.3174 23.1666 43.3174C22.5036 43.3174 21.8677 43.054 21.3989 42.5852C20.93 42.1163 20.6666 41.4804 20.6666 40.8174V33.3174C20.6666 32.6543 20.93 32.0185 21.3989 31.5496C21.8677 31.0808 22.5036 30.8174 23.1666 30.8174C23.8297 30.8174 24.4656 31.0808 24.9344 31.5496C25.4032 32.0185 25.6666 32.6543 25.6666 33.3174ZM35.6666 28.3174V40.8174C35.6666 41.4804 35.4032 42.1163 34.9344 42.5852C34.4656 43.054 33.8297 43.3174 33.1666 43.3174C32.5036 43.3174 31.8677 43.054 31.3989 42.5852C30.93 42.1163 30.6666 41.4804 30.6666 40.8174V28.3174C30.6666 27.6543 30.93 27.0185 31.3989 26.5496C31.8677 26.0808 32.5036 25.8174 33.1666 25.8174C33.8297 25.8174 34.4656 26.0808 34.9344 26.5496C35.4032 27.0185 35.6666 27.6543 35.6666 28.3174ZM45.6666 23.3174V40.8174C45.6666 41.4804 45.4032 42.1163 44.9344 42.5852C44.4656 43.054 43.8297 43.3174 43.1666 43.3174C42.5036 43.3174 41.8677 43.054 41.3989 42.5852C40.93 42.1163 40.6666 41.4804 40.6666 40.8174V23.3174C40.6666 22.6543 40.93 22.0185 41.3989 21.5496C41.8677 21.0808 42.5036 20.8174 43.1666 20.8174C43.8297 20.8174 44.4656 21.0808 44.9344 21.5496C45.4032 22.0185 45.6666 22.6543 45.6666 23.3174Z" fill="white"/>
</svg>
