<svg width="71" height="51" viewBox="0 0 71 51" fill="none" xmlns="http://www.w3.org/2000/svg">
<path d="M25.5 20.8174C25.5 20.1543 25.7634 19.5185 26.2322 19.0496C26.7011 18.5808 27.3369 18.3174 28 18.3174H53C53.663 18.3174 54.2989 18.5808 54.7678 19.0496C55.2366 19.5185 55.5 20.1543 55.5 20.8174C55.5 21.4804 55.2366 22.1163 54.7678 22.5851C54.2989 23.054 53.663 23.3174 53 23.3174H28C27.3369 23.3174 26.7011 23.054 26.2322 22.5851C25.7634 22.1163 25.5 21.4804 25.5 20.8174ZM28 33.3174H53C53.663 33.3174 54.2989 33.054 54.7678 32.5852C55.2366 32.1163 55.5 31.4804 55.5 30.8174C55.5 30.1543 55.2366 29.5185 54.7678 29.0496C54.2989 28.5808 53.663 28.3174 53 28.3174H28C27.3369 28.3174 26.7011 28.5808 26.2322 29.0496C25.7634 29.5185 25.5 30.1543 25.5 30.8174C25.5 31.4804 25.7634 32.1163 26.2322 32.5852C26.7011 33.054 27.3369 33.3174 28 33.3174ZM70.5 5.81738V43.3174C70.5 45.3065 69.7098 47.2142 68.3033 48.6207C66.8968 50.0272 64.9891 50.8174 63 50.8174H7.99998C6.0168 50.8174 4.11434 50.0319 2.7088 48.6329C1.30326 47.2338 0.509074 45.3349 0.499985 43.3518V13.3174C0.499985 12.6543 0.763377 12.0185 1.23222 11.5496C1.70106 11.0808 2.33694 10.8174 2.99998 10.8174C3.66303 10.8174 4.29891 11.0808 4.76775 11.5496C5.23659 12.0185 5.49998 12.6543 5.49998 13.3174V43.3174C5.49998 43.9804 5.76338 44.6163 6.23222 45.0852C6.70106 45.554 7.33694 45.8174 7.99998 45.8174C8.66303 45.8174 9.29891 45.554 9.76775 45.0852C10.2366 44.6163 10.5 43.9804 10.5 43.3174V5.81738C10.5 4.4913 11.0268 3.21953 11.9645 2.28185C12.9021 1.34417 14.1739 0.817383 15.5 0.817383H65.5C66.8261 0.817383 68.0978 1.34417 69.0355 2.28185C69.9732 3.21953 70.5 4.4913 70.5 5.81738ZM65.5 5.81738H15.5V43.3174C15.5012 44.1691 15.3564 45.0146 15.0719 45.8174H63C63.663 45.8174 64.2989 45.554 64.7678 45.0852C65.2366 44.6163 65.5 43.9804 65.5 43.3174V5.81738Z" fill="white"/>
</svg>
