<svg width="55" height="66" viewBox="0 0 55 66" fill="none" xmlns="http://www.w3.org/2000/svg">
<path d="M54.2687 18.5486L36.7687 1.04863C36.5364 0.816548 36.2606 0.632513 35.9571 0.507043C35.6536 0.381572 35.3284 0.317125 35 0.317384H4.99998C3.6739 0.317384 2.40213 0.844168 1.46445 1.78185C0.526769 2.71953 -1.52588e-05 3.9913 -1.52588e-05 5.31738V60.3174C-1.52588e-05 61.6435 0.526769 62.9152 1.46445 63.8529C2.40213 64.7906 3.6739 65.3174 4.99998 65.3174H50C51.3261 65.3174 52.5978 64.7906 53.5355 63.8529C54.4732 62.9152 55 61.6435 55 60.3174V20.3174C55.0002 19.989 54.9358 19.6637 54.8103 19.3603C54.6849 19.0568 54.5008 18.781 54.2687 18.5486ZM37.5 8.85176L46.4656 17.8174H37.5V8.85176ZM50 60.3174H4.99998V5.31738H32.5V20.3174C32.5 20.9804 32.7634 21.6163 33.2322 22.0851C33.7011 22.554 34.3369 22.8174 35 22.8174H50V60.3174ZM35.7687 45.0518C37.2442 42.7073 37.8041 39.9014 37.3415 37.1702C36.8789 34.439 35.4263 31.9739 33.2611 30.2461C31.096 28.5182 28.3701 27.6486 25.6043 27.8034C22.8386 27.9583 20.2268 29.1267 18.268 31.0854C16.3093 33.0442 15.1409 35.656 14.986 38.4217C14.8312 41.1875 15.7008 43.9134 17.4287 46.0785C19.1565 48.2437 21.6216 49.6963 24.3528 50.1589C27.084 50.6215 29.8899 50.0616 32.2344 48.5861L35.7312 52.0861C35.9635 52.3184 36.2393 52.5027 36.5427 52.6284C36.8462 52.7541 37.1715 52.8188 37.5 52.8188C37.8285 52.8188 38.1537 52.7541 38.4572 52.6284C38.7607 52.5027 39.0365 52.3184 39.2687 52.0861C39.501 51.8539 39.6853 51.5781 39.811 51.2746C39.9367 50.9711 40.0014 50.6459 40.0014 50.3174C40.0014 49.9889 39.9367 49.6636 39.811 49.3601C39.6853 49.0567 39.501 48.7809 39.2687 48.5486L35.7687 45.0518ZM20 39.0674C20 37.8312 20.3665 36.6229 21.0533 35.5951C21.7401 34.5673 22.7162 33.7662 23.8582 33.2931C25.0002 32.8201 26.2569 32.6963 27.4693 32.9375C28.6817 33.1786 29.7953 33.7739 30.6694 34.648C31.5435 35.522 32.1387 36.6357 32.3799 37.8481C32.6211 39.0604 32.4973 40.3171 32.0242 41.4592C31.5512 42.6012 30.7501 43.5773 29.7223 44.2641C28.6945 44.9508 27.4861 45.3174 26.25 45.3174C24.5924 45.3174 23.0027 44.6589 21.8306 43.4868C20.6585 42.3147 20 40.725 20 39.0674Z" fill="white"/>
</svg>
