<svg width="71" height="61" viewBox="0 0 71 61" fill="none" xmlns="http://www.w3.org/2000/svg">
<path d="M67.8333 0.818481H45.3333C43.3927 0.818481 41.4788 1.27029 39.7431 2.13814C38.0075 3.00599 36.4977 4.26603 35.3333 5.81848C34.169 4.26603 32.6592 3.00599 30.9235 2.13814C29.1878 1.27029 27.2739 0.818481 25.3333 0.818481H2.83331C2.17027 0.818481 1.53439 1.08187 1.06555 1.55071C0.596705 2.01956 0.333313 2.65544 0.333313 3.31848V48.3185C0.333313 48.9815 0.596705 49.6174 1.06555 50.0863C1.53439 50.5551 2.17027 50.8185 2.83331 50.8185H25.3333C27.3224 50.8185 29.2301 51.6087 30.6366 53.0152C32.0431 54.4217 32.8333 56.3294 32.8333 58.3185C32.8333 58.9815 33.0967 59.6174 33.5655 60.0863C34.0344 60.5551 34.6703 60.8185 35.3333 60.8185C35.9964 60.8185 36.6322 60.5551 37.1011 60.0863C37.5699 59.6174 37.8333 58.9815 37.8333 58.3185C37.8333 56.3294 38.6235 54.4217 40.03 53.0152C41.4365 51.6087 43.3442 50.8185 45.3333 50.8185H67.8333C68.4964 50.8185 69.1322 50.5551 69.6011 50.0863C70.0699 49.6174 70.3333 48.9815 70.3333 48.3185V3.31848C70.3333 2.65544 70.0699 2.01956 69.6011 1.55071C69.1322 1.08187 68.4964 0.818481 67.8333 0.818481ZM25.3333 45.8185H5.33331V5.81848H25.3333C27.3224 5.81848 29.2301 6.60866 30.6366 8.01518C32.0431 9.4217 32.8333 11.3294 32.8333 13.3185V48.3185C30.6716 46.6918 28.0386 45.8142 25.3333 45.8185ZM65.3333 45.8185H45.3333C42.628 45.8142 39.995 46.6918 37.8333 48.3185V13.3185C37.8333 11.3294 38.6235 9.4217 40.03 8.01518C41.4365 6.60866 43.3442 5.81848 45.3333 5.81848H65.3333V45.8185ZM45.3333 13.3185H57.8333C58.4964 13.3185 59.1322 13.5819 59.6011 14.0507C60.0699 14.5196 60.3333 15.1554 60.3333 15.8185C60.3333 16.4815 60.0699 17.1174 59.6011 17.5862C59.1322 18.0551 58.4964 18.3185 57.8333 18.3185H45.3333C44.6703 18.3185 44.0344 18.0551 43.5655 17.5862C43.0967 17.1174 42.8333 16.4815 42.8333 15.8185C42.8333 15.1554 43.0967 14.5196 43.5655 14.0507C44.0344 13.5819 44.6703 13.3185 45.3333 13.3185ZM60.3333 25.8185C60.3333 26.4815 60.0699 27.1174 59.6011 27.5863C59.1322 28.0551 58.4964 28.3185 57.8333 28.3185H45.3333C44.6703 28.3185 44.0344 28.0551 43.5655 27.5863C43.0967 27.1174 42.8333 26.4815 42.8333 25.8185C42.8333 25.1554 43.0967 24.5196 43.5655 24.0507C44.0344 23.5819 44.6703 23.3185 45.3333 23.3185H57.8333C58.4964 23.3185 59.1322 23.5819 59.6011 24.0507C60.0699 24.5196 60.3333 25.1554 60.3333 25.8185ZM60.3333 35.8185C60.3333 36.4815 60.0699 37.1174 59.6011 37.5863C59.1322 38.0551 58.4964 38.3185 57.8333 38.3185H45.3333C44.6703 38.3185 44.0344 38.0551 43.5655 37.5863C43.0967 37.1174 42.8333 36.4815 42.8333 35.8185C42.8333 35.1554 43.0967 34.5196 43.5655 34.0507C44.0344 33.5819 44.6703 33.3185 45.3333 33.3185H57.8333C58.4964 33.3185 59.1322 33.5819 59.6011 34.0507C60.0699 34.5196 60.3333 35.1554 60.3333 35.8185Z" fill="white"/>
</svg>
