<svg width="25" height="24" viewBox="0 0 25 24" fill="none" xmlns="http://www.w3.org/2000/svg">
<path d="M20.633 19.8478L14.7643 10.6247L20.5552 4.25438C20.6862 4.10674 20.7537 3.91343 20.7431 3.71636C20.7325 3.51929 20.6446 3.33435 20.4986 3.20161C20.3525 3.06888 20.16 2.99907 19.9628 3.00731C19.7657 3.01555 19.5797 3.10117 19.4452 3.24562L13.9289 9.31312L10.133 3.34781C10.0653 3.24127 9.97183 3.15353 9.86121 3.09274C9.75059 3.03194 9.62642 3.00004 9.50019 3H5.00019C4.86571 2.99993 4.7337 3.03603 4.61796 3.10449C4.50222 3.17296 4.40702 3.27129 4.34232 3.38918C4.27763 3.50707 4.24582 3.64018 4.25023 3.77458C4.25463 3.90898 4.2951 4.03973 4.36738 4.15313L10.2361 13.3753L4.44519 19.7503C4.37756 19.823 4.32503 19.9083 4.29063 20.0014C4.25623 20.0945 4.24065 20.1935 4.24479 20.2927C4.24894 20.3918 4.27272 20.4892 4.31477 20.5791C4.35681 20.669 4.41628 20.7496 4.48973 20.8164C4.56318 20.8831 4.64915 20.9346 4.74265 20.9679C4.83615 21.0012 4.93533 21.0156 5.03443 21.0103C5.13354 21.0049 5.2306 20.98 5.31999 20.9369C5.40938 20.8937 5.48932 20.8333 5.55519 20.7591L11.0714 14.6916L14.8674 20.6569C14.9356 20.7625 15.0293 20.8494 15.1399 20.9093C15.2505 20.9693 15.3744 21.0005 15.5002 21H20.0002C20.1345 21 20.2664 20.9638 20.382 20.8954C20.4976 20.827 20.5927 20.7288 20.6573 20.611C20.722 20.4933 20.7539 20.3604 20.7496 20.2261C20.7453 20.0918 20.705 19.9612 20.633 19.8478ZM15.9118 19.5L6.36613 4.5H9.08488L18.6343 19.5H15.9118Z" fill="white"/>
</svg>
